

<svg width="50px" height="50px" viewBox="133 198 50 50" version="1.1" xmlns="http://www.w3.org/2000/svg" xmlns:xlink="http://www.w3.org/1999/xlink">
    <!-- Generator: Sketch 40.3 (33839) - http://www.bohemiancoding.com/sketch -->
    <desc>Created with Sketch.</desc>
    <defs>
        <circle id="path-1" cx="23" cy="23" r="23"></circle>
        <mask id="mask-2" maskContentUnits="userSpaceOnUse" maskUnits="objectBoundingBox" x="-2" y="-2" width="50" height="50">
            <rect x="-2" y="-2" width="50" height="50" fill="white"></rect>
            <use xlink:href="#path-1" fill="black"></use>
        </mask>
    </defs>
    <g id="icon" stroke="none" stroke-width="1" fill="none" fill-rule="evenodd" transform="translate(135.000000, 200.000000)">
        <use id="Oval" stroke="#FFFFFF" mask="url(#mask-2)" stroke-width="4" opacity="0.2" xlink:href="#path-1"></use>
        <path d="M29.7,26.24 C29.9266678,26.3466672 30.106666,26.499999 30.24,26.7 C30.373334,26.900001 30.44,27.1266654 30.44,27.38 L30.44,27.54 L29.82,31.94 C29.7799998,32.2600016 29.6466678,32.5166657 29.42,32.71 C29.1933322,32.9033343 28.9266682,33 28.62,33 L22.94,33 C22.606665,33 22.3200012,32.8800012 22.08,32.64 L17.94,28.5 L18.62,27.84 C18.7800008,27.6533324 18.9999986,27.56 19.28,27.56 L22.32,28.2 L22.32,19.24 C22.32,18.8933316 22.4399988,18.6000012 22.68,18.36 C22.9200012,18.1199988 23.2199982,18 23.58,18 C23.9400018,18 24.2366655,18.1199988 24.47,18.36 C24.7033345,18.6000012 24.82,18.8933316 24.82,19.24 L24.82,24.24 L25.48,24.24 C25.5600004,24.24 25.7066656,24.2666664 25.92,24.32 L29.7,26.24 Z M21.5,22.38 C20.9799974,22.0333316 20.5700015,21.5833361 20.27,21.03 C19.9699985,20.4766639 19.82,19.8800032 19.82,19.24 C19.82,18.5599966 19.9899983,17.9333362 20.33,17.36 C20.6700017,16.7866638 21.1266638,16.333335 21.7,16 C22.2733362,15.666665 22.8999966,15.5 23.58,15.5 C24.2600034,15.5 24.8866638,15.666665 25.46,16 C26.0333362,16.333335 26.486665,16.7866638 26.82,17.36 C27.153335,17.9333362 27.32,18.5599966 27.32,19.24 C27.32,19.8933366 27.1733348,20.4933306 26.88,21.04 C26.5866652,21.5866694 26.1866692,22.0333316 25.68,22.38 L25.68,19.24 C25.68,18.8799982 25.5833343,18.5400016 25.39,18.22 C25.1966657,17.8999984 24.9400016,17.6466676 24.62,17.46 C24.2999984,17.2733324 23.9533352,17.18 23.58,17.18 C23.2066648,17.18 22.8633349,17.2733324 22.55,17.46 C22.2366651,17.6466676 21.9833343,17.8999984 21.79,18.22 C21.5966657,18.5400016 21.5,18.8799982 21.5,19.24 L21.5,22.38 Z" id="touch_app---material" fill="#FFFFFF"></path>
    </g>
</svg>