
<svg width="50px" height="50px" viewBox="695 21 50 50" version="1.1" xmlns="http://www.w3.org/2000/svg" xmlns:xlink="http://www.w3.org/1999/xlink">
    <defs>
        <circle id="path-1" cx="23" cy="23" r="23"></circle>
        <mask id="mask-2" maskContentUnits="userSpaceOnUse" maskUnits="objectBoundingBox" x="-2" y="-2" width="50" height="50">
            <rect x="-2" y="-2" width="50" height="50" fill="white"></rect>
            <use xlink:href="#path-1" fill="black"></use>
        </mask>
    </defs>
    <g id="Group-4" stroke="none" stroke-width="1" fill="none" fill-rule="evenodd" transform="translate(697.000000, 23.000000)">
        <use id="Oval" stroke="#FFFFFF" mask="url(#mask-2)" stroke-width="4" opacity="0.5" xlink:href="#path-1"></use>
        <path d="M26.32,29 L26.32,17.32 L18.82,17.32 L18.82,29 L26.32,29 Z M22.58,32.32 C22.9266684,32.32 23.2199988,32.2000012 23.46,31.96 C23.7000012,31.7199988 23.82,31.4266684 23.82,31.08 C23.82,30.7333316 23.7000012,30.4366679 23.46,30.19 C23.2199988,29.9433321 22.9266684,29.82 22.58,29.82 C22.2333316,29.82 21.9366679,29.9399988 21.69,30.18 C21.4433321,30.4200012 21.32,30.7199982 21.32,31.08 C21.32,31.4400018 21.4399988,31.7366655 21.68,31.97 C21.9200012,32.2033345 22.2199982,32.32 22.58,32.32 L22.58,32.32 Z M25.94,14.82 C26.3000018,14.82 26.6399984,14.9166657 26.96,15.11 C27.2800016,15.3033343 27.5333324,15.5599984 27.72,15.88 C27.9066676,16.2000016 28,16.5466648 28,16.92 L28,31.08 C28,31.4533352 27.9066676,31.7999984 27.72,32.12 C27.5333324,32.4400016 27.2800016,32.6966657 26.96,32.89 C26.6399984,33.0833343 26.3000018,33.18 25.94,33.18 L19.26,33.18 C18.8866648,33.18 18.5400016,33.0833343 18.22,32.89 C17.8999984,32.6966657 17.6466676,32.4400016 17.46,32.12 C17.2733324,31.7999984 17.18,31.4533352 17.18,31.08 L17.18,16.92 C17.18,16.5466648 17.2733324,16.2000016 17.46,15.88 C17.6466676,15.5599984 17.8999984,15.3033343 18.22,15.11 C18.5400016,14.9166657 18.8866648,14.82 19.26,14.82 L25.94,14.82 Z" id="phone_iphone---material" fill="#FFFFFF"></path>
    </g>
</svg>