
<svg width="40px" height="40px" viewBox="1055 0 40 40" version="1.1" xmlns="http://www.w3.org/2000/svg" xmlns:xlink="http://www.w3.org/1999/xlink">
    <defs>
        <rect id="path-1" x="0" y="0" width="40" height="40" rx="20"></rect>
        <mask id="mask-2" maskContentUnits="userSpaceOnUse" maskUnits="objectBoundingBox" x="0" y="0" width="40" height="40" fill="white">
            <use xlink:href="#path-1"></use>
        </mask>
    </defs>
    <g id="Button-Copy" stroke="none" stroke-width="1" fill="none" fill-rule="evenodd" transform="translate(1055.000000, 0.000000)">
        <use id="Button" stroke="#FFFFFF" mask="url(#mask-2)" stroke-width="4" opacity="0.5" xlink:href="#path-1"></use>
        <path d="M21,18 L23.5,18 L23.1875,20.5 L21,20.5 L21,28 L17.7578125,28 L17.7578125,20.5 L16,20.5 L16,18 L17.7578125,18 L17.7578125,16.3203125 C17.7578125,15.226557 18.0312473,14.3997424 18.578125,13.8398438 C19.1250027,13.2799451 20.036452,13 21.3125,13 L23.5,13 L23.5,15.5 L22.171875,15.5 C21.6770809,15.5 21.3580736,15.5781242 21.2148438,15.734375 C21.0716139,15.8906258 21,16.1510398 21,16.515625 L21,18 Z" id="ion-social-facebook---Ionicons" fill="#FFFFFF"></path>
    </g>
</svg>