
<svg width="50px" height="50px" viewBox="923 21 50 50" version="1.1" xmlns="http://www.w3.org/2000/svg" xmlns:xlink="http://www.w3.org/1999/xlink">
    <!-- Generator: Sketch 41 (35326) - http://www.bohemiancoding.com/sketch -->
    <desc>Created with Sketch.</desc>
    <defs>
        <circle id="path-1" cx="23" cy="23" r="23"></circle>
        <mask id="mask-2" maskContentUnits="userSpaceOnUse" maskUnits="objectBoundingBox" x="-2" y="-2" width="50" height="50">
            <rect x="-2" y="-2" width="50" height="50" fill="white"></rect>
            <use xlink:href="#path-1" fill="black"></use>
        </mask>
    </defs>
    <g id="Group-5" stroke="none" stroke-width="1" fill="none" fill-rule="evenodd" transform="translate(925.000000, 23.000000)">
        <use id="Oval" stroke="#000000" mask="url(#mask-2)" stroke-width="4" opacity="0.5" xlink:href="#path-1"></use>
        <path d="M28.7,26.24 C28.9266678,26.3466672 29.106666,26.499999 29.24,26.7 C29.373334,26.900001 29.44,27.1266654 29.44,27.38 L29.44,27.54 L28.82,31.94 C28.7799998,32.2600016 28.6466678,32.5166657 28.42,32.71 C28.1933322,32.9033343 27.9266682,33 27.62,33 L21.94,33 C21.606665,33 21.3200012,32.8800012 21.08,32.64 L16.94,28.5 L17.62,27.84 C17.7800008,27.6533324 17.9999986,27.56 18.28,27.56 L21.32,28.2 L21.32,19.24 C21.32,18.8933316 21.4399988,18.6000012 21.68,18.36 C21.9200012,18.1199988 22.2199982,18 22.58,18 C22.9400018,18 23.2366655,18.1199988 23.47,18.36 C23.7033345,18.6000012 23.82,18.8933316 23.82,19.24 L23.82,24.24 L24.48,24.24 C24.5600004,24.24 24.7066656,24.2666664 24.92,24.32 L28.7,26.24 Z M20.5,22.38 C19.9799974,22.0333316 19.5700015,21.5833361 19.27,21.03 C18.9699985,20.4766639 18.82,19.8800032 18.82,19.24 C18.82,18.5599966 18.9899983,17.9333362 19.33,17.36 C19.6700017,16.7866638 20.1266638,16.333335 20.7,16 C21.2733362,15.666665 21.8999966,15.5 22.58,15.5 C23.2600034,15.5 23.8866638,15.666665 24.46,16 C25.0333362,16.333335 25.486665,16.7866638 25.82,17.36 C26.153335,17.9333362 26.32,18.5599966 26.32,19.24 C26.32,19.8933366 26.1733348,20.4933306 25.88,21.04 C25.5866652,21.5866694 25.1866692,22.0333316 24.68,22.38 L24.68,19.24 C24.68,18.8799982 24.5833343,18.5400016 24.39,18.22 C24.1966657,17.8999984 23.9400016,17.6466676 23.62,17.46 C23.2999984,17.2733324 22.9533352,17.18 22.58,17.18 C22.2066648,17.18 21.8633349,17.2733324 21.55,17.46 C21.2366651,17.6466676 20.9833343,17.8999984 20.79,18.22 C20.5966657,18.5400016 20.5,18.8799982 20.5,19.24 L20.5,22.38 Z" id="touch_app---material" fill="#000000"></path>
    </g>
</svg>