<svg xmlns="http://www.w3.org/2000/svg" xmlns:xlink="http://www.w3.org/1999/xlink" viewBox="0 0 495.66 476.92"><defs><style>.cls-1,.cls-2,.cls-3,.cls-5,.cls-7{fill:none;}.cls-1,.cls-3,.cls-5{stroke:#fff;}.cls-1{stroke-width:40px;}.cls-2{stroke:#000;stroke-width:30px;}.cls-3{stroke-width:10px;}.cls-4{fill:url(#linear-gradient);}.cls-5{stroke-width:15px;}.cls-6{fill:#fff;}.cls-7{stroke:#010101;stroke-width:5.62px;}.cls-8{fill:#010101;}</style><linearGradient id="linear-gradient" x1="100.36" y1="255.7" x2="396.27" y2="255.7" gradientUnits="userSpaceOnUse"><stop offset="0" stop-color="#078a44"/><stop offset="0.49" stop-color="#078a44"/><stop offset="0.49" stop-color="#fff"/><stop offset="0.51" stop-color="#fff"/><stop offset="0.51" stop-color="#ed2024"/></linearGradient></defs><title>Asset 2</title><g id="Layer_2" data-name="Layer 2"><g id="Layer_4" data-name="Layer 4"><rect width="495.66" height="476.92" rx="12" ry="12"/></g><g id="Layer_1_copy" data-name="Layer 1 copy"><path class="cls-1" d="M248.32,81c-96.94,0-148,12-148,12v113.3c0,148.67,112.1,208.43,148,224.2,35.85-15.78,148-75.53,148-224.2V92.94S345.26,81,248.32,81Z"/><path class="cls-2" d="M248.32,81c-96.94,0-148,12-148,12v113.3c0,148.67,112.1,208.43,148,224.2,35.85-15.78,148-75.53,148-224.2V92.94S345.26,81,248.32,81Z"/><path class="cls-3" d="M248.32,81c-96.94,0-148,12-148,12v113.3c0,148.67,112.1,208.43,148,224.2,35.85-15.78,148-75.53,148-224.2V92.94S345.26,81,248.32,81Z"/><path class="cls-4" d="M248.32,81c-96.94,0-148,12-148,12v113.3c0,148.67,112.1,208.43,148,224.2,35.85-15.78,148-75.53,148-224.2V92.94S345.26,81,248.32,81Z"/><circle class="cls-5" cx="248.32" cy="122.38" r="93.67" transform="translate(114.51 364.73) rotate(-87.33)"/><circle class="cls-6" cx="248.32" cy="122.38" r="93.67" transform="translate(114.51 364.73) rotate(-87.33)"/><circle class="cls-7" cx="248.32" cy="122.38" r="93.67" transform="translate(114.51 364.73) rotate(-87.33)"/><path class="cls-8" d="M303.21,57.29l-9.95,1.13,4.52,30.75,26.84,16.29,5.3-9.08a85.44,85.44,0,0,0-26.71-39.08"/><polyline class="cls-8" points="238.17 90.31 213.48 120.77 235.23 153.39 273.38 143.09 275.19 104.11 238.17 90.31"/><path class="cls-8" d="M288.38,189.44l9.75,2A85.09,85.09,0,0,0,327.91,154l-3.93-8.5-28.24,13.72-7.36,30.2"/><path class="cls-8" d="M164.16,141.86l10,5.53,14.64-27.48-12-28.73-10.63,4.69a83.86,83.86,0,0,0-1.94,46"/><path class="cls-8" d="M240.6,207l8.49-7.68L227.1,177l-31.4,2.37,1.23,11.36A86.46,86.46,0,0,0,240.6,207"/><path class="cls-8" d="M203.5,49.56l-2.17,10.59,31,5.29,24-20.13-7.2-7.85A86.54,86.54,0,0,0,203.5,49.56"/><path d="M12.42,274.59q8.46-20.2,17-40.37Q21,217.39,12.47,200.58a1052.56,1052.56,0,0,1,471.74,0q-8.51,16.32-17,32.66,8.49,20.65,16.93,41.33A1052.63,1052.63,0,0,0,12.42,274.59Z"/><path class="cls-6" d="M480.32,202.18q-7.92,15.23-15.82,30.46,7.94,19.26,15.82,38.54a1052.66,1052.66,0,0,0-464,0q7.87-18.78,15.82-37.54-7.89-15.74-15.82-31.46a1052.71,1052.71,0,0,1,464,0m7.77-3.16c-3.11-.75-4.66-1.11-7.77-1.83a1052.84,1052.84,0,0,0-464,0c-3.07.71-4.61,1.08-7.68,1.81l3.19,6.32q7.44,14.74,14.85,29.49-7.44,17.63-14.83,35.29L8.54,278c3.11-.75,4.66-1.11,7.77-1.83a1052.71,1052.71,0,0,1,464,0c3.07.71,4.61,1.08,7.68,1.81l-3.19-7.84Q477.41,252,470,233.86q7.4-14.26,14.83-28.51l3.31-6.34Z"/><path class="cls-6" d="M93.13,228.71c-6,.92-9,1.4-15,2.4v.1c0,2.56,1.06,4,4.57,3.39,2.55-.42,7.39-1.47,9.15-1.84l.19,0c.53-.08.87.11.87.69,0,1.74,0,2.61,0,4.34a1.39,1.39,0,0,1-1,1.5,38.27,38.27,0,0,1-10.45,3.16C75,243.49,69,241.14,69,231.92c0-1.27,0-1.91,0-3.19,0-8.49,4.9-14,12.79-15.31,8.42-1.38,12.33,3.41,12.33,11.18v2.9A1.21,1.21,0,0,1,93.13,228.71Zm-7.85-4c0-2.9-1.16-4.45-3.56-4.06s-3.56,2.33-3.56,5.23c0,.06,0,.09,0,.14,2.85-.48,4.27-.71,7.12-1.17C85.28,224.77,85.28,224.74,85.28,224.68Z"/><path class="cls-6" d="M128,235.43c-3.15.37-4.73.56-7.88,1a.84.84,0,0,1-1-.84c0-5.25,0-7.88,0-13.13-4,.51-6.06.78-10.09,1.33,0,5.25,0,7.88,0,13.13a1.15,1.15,0,0,1-1,1.1c-3.15.43-4.72.66-7.86,1.11a.85.85,0,0,1-1-.82q0-17,0-34a1.17,1.17,0,0,1,1-1.07c3.14-.46,4.71-.68,7.86-1.11a.79.79,0,0,1,1,.78v12.36c4-.55,6.05-.82,10.09-1.33V201.57a1.08,1.08,0,0,1,1-1c3.15-.4,4.73-.59,7.88-1a.81.81,0,0,1,1,.8q0,17,0,34A1.12,1.12,0,0,1,128,235.43Z"/><path class="cls-6" d="M163.9,231.84c-3.37.28-5.06.42-8.43.73a1,1,0,0,1-1-.83l-1.36-6.58c-3.45.32-5.17.49-8.62.84l-1.36,6.85a1.23,1.23,0,0,1-1,1c-3.35.35-5,.53-8.37.9a.68.68,0,0,1-.82-.68c0-.1,0-.15,0-.25q3.24-15.13,6.48-30.25c1.07-4.89,4.7-6.24,9.3-6.69s8.23.2,9.3,4.88l6.49,29a1.94,1.94,0,0,0,0,.24A.79.79,0,0,1,163.9,231.84Zm-14.54-26.31c-.1-.42-.1-.67-.53-.62s-.44.28-.53.73l-2.37,12.49,5.81-.56Z"/><path class="cls-6" d="M181.11,231a76.89,76.89,0,0,1-9.31.07c-2.28-.22-3.05-.83-3.05-3.43q0-14.17,0-28.33c0-2.61.79-3.33,3-3.85a79.22,79.22,0,0,1,9.22-1.23c9.56-.63,15.77,1.31,15.77,9.41v.82c0,3-3.74,7-3.74,7,0,.32,3.93,3.71,3.93,6.79,0,.25,0,.38,0,.63C196.93,228.24,188.87,230.49,181.11,231Zm6.12-26.11c0-1.88-1.16-3-4.95-2.78l-3.83.3v6.85l4.71-.31c3.2-.2,4.08-1.6,4.08-3.29Zm.19,13.84c0-1.93-1.07-3.42-4.27-3.21l-4.71.31v7.38l4-.26c3.79-.24,5-1.71,5-3.78Z"/><path class="cls-6" d="M222.28,228.54a56.71,56.71,0,0,1-7.63.8c-6.22.2-12.48-1-12.48-10.32V194.5a1.07,1.07,0,0,1,1-1c3.17-.14,4.75-.2,7.92-.32a.93.93,0,0,1,1,.93v24.52c0,1.88.58,2.39,2.33,2.33,3.15-.1,4.72-.15,7.87-.23a.94.94,0,0,1,1,.94v5.89C223.26,228.13,222.9,228.42,222.28,228.54Z"/><path class="cls-6" d="M256.3,228.39c-3.38,0-5.08,0-8.46,0a1.08,1.08,0,0,1-1-.92l-1.36-6.71c-3.46,0-5.19,0-8.65.06l-1.36,6.72a1.1,1.1,0,0,1-1,.93c-3.36,0-5,.07-8.41.15a.76.76,0,0,1-.83-.75c0-.1,0-.15,0-.24l6.51-29.66c1.07-4.8,4.71-5.82,9.33-5.85s8.26.94,9.33,5.72L257,227.38a2.1,2.1,0,0,0,0,.24A.71.71,0,0,1,256.3,228.39Zm-14.58-27.62c-.1-.43-.1-.67-.54-.67s-.44.25-.54.68l-2.38,12.28,5.83,0Z"/><path class="cls-6" d="M281.13,212.13c-6-.19-9-.26-14.92-.37,0,6.31,0,9.47,0,15.78a1,1,0,0,1-1,.95l-2.48,0a1,1,0,0,1-1-1c0-10.5,0-15.75,0-26.25,0-6.42,3.55-8.95,10.35-8.79,2.87.07,7.52.23,9.48.55a.71.71,0,0,1,.48.69v2.41a.5.5,0,0,1-.53.56c-3.75-.12-5.62-.17-9.38-.26-5.15-.12-6,1.23-6,4.9V208c6,.1,9,.18,14.92.37a1,1,0,0,1,1,1v1.83A.93.93,0,0,1,281.13,212.13Z"/><path class="cls-6" d="M300.84,230c-7.87-.4-12.43-4.71-12.43-13.93,0-8.76,0-13.15,0-21.91a.87.87,0,0,1,.92-.88l2.62.11a1,1,0,0,1,.92,1c0,8.76,0,13.15,0,21.91,0,6.23,1.94,9.67,8,10s8-2.89,8-9.17c0-8.76,0-13.15,0-21.91a.86.86,0,0,1,.92-.86l2.62.16a1,1,0,0,1,.92,1c0,8.76,0,13.15,0,21.91C313.27,226.6,308.71,230.44,300.84,230Z"/><path class="cls-6" d="M342.89,200.63c-3.78-.35-5.67-.52-9.45-.83q0,15.56,0,31.13a.83.83,0,0,1-.87.89l-2.67-.22a1,1,0,0,1-.87-1q0-15.56,0-31.13c-3.78-.3-5.67-.44-9.46-.7-.53,0-1-.31-1-.84v-2.12a.85.85,0,0,1,1-.8c9.33.65,14,1,23.32,1.89a1,1,0,0,1,.92,1v2.12C343.81,200.42,343.42,200.68,342.89,200.63Z"/><path class="cls-6" d="M358.77,234.65a66.8,66.8,0,0,1-7.89-1.26,1.73,1.73,0,0,1-1.6-1.95V199.31c0-1.11.55-1.62,1.55-1.63a72.51,72.51,0,0,1,7.7.42c7.69.83,14.17,3.66,14.17,10.94v.77c0,3.57-5.17,7-5.17,7,0,.22,5.36,4.74,5.36,8.46V226C372.89,234.15,366.31,235.47,358.77,234.65Zm9.53-26.15c0-4.63-3.87-6.06-9.77-6.7-1.64-.18-3.43-.27-4.79-.36v12c3,.31,4.47.47,7.45.8,5.61.62,7.11-1.89,7.11-4.93Zm.19,16.19c0-3.19-1.59-6.33-7.3-7-3-.33-4.47-.49-7.45-.8,0,5.31,0,8,0,13.27,1.6.21,3.34.54,5,.72,6,.65,9.72-.21,9.72-5.42Z"/><path class="cls-6" d="M391.28,238.69c-7.58-1.06-13.08-6.19-13.08-16.91v-6.23c0-10.71,5.51-14.47,13.08-13.4s13,6.35,13,17.07v6.23C404.3,236.17,398.85,239.76,391.28,238.69Zm8.58-20.14c0-8.11-3.28-11.69-8.58-12.44s-8.64,1.91-8.64,10c0,2.49,0,3.74,0,6.23,0,8.11,3.33,11.63,8.64,12.37s8.58-1.84,8.58-10C399.87,222.29,399.86,221,399.86,218.56Z"/><path class="cls-6" d="M430.56,244.56a86.3,86.3,0,0,1-9.37-1.21c-5.14-.88-10.25-2.71-10.25-10.67V206.42a.8.8,0,0,1,1-.81l2.46.4a1.18,1.18,0,0,1,1,1.12v26.26c0,3.67.82,5.14,5.92,6,3.71.63,5.56,1,9.27,1.63a.64.64,0,0,1,.53.67V244C431,244.26,430.84,244.56,430.56,244.56Z"/><path class="cls-6" d="M436.35,236.46c.19-5.88.52-7.16,1.86-9.07l2-2.89c1.43-2,1.67-3.14,1.67-5.83s-.67-4.07-2.48-4.41c-2.34-.44-2.63,2.29-2.67,5.55l-4.88-.9v-.77c0-5.53,2.39-9,7.79-8,3.82.72,7.12,3.73,7.12,9.59a9.55,9.55,0,0,1-2.24,6.77l-2.1,2.77c-1.58,2.05-1.82,3.93-1.91,8Zm2.1,4a3.65,3.65,0,0,1,2.87,3.43,2.32,2.32,0,0,1-2.87,2.34,3.64,3.64,0,0,1-2.87-3.42A2.33,2.33,0,0,1,438.45,240.5Z"/><path class="cls-6" d="M60.29,219.25c-.19,5.95-.53,7.36-1.86,9.77l-2,3.65a10.79,10.79,0,0,0-1.67,6.47c0,2.74.67,3.81,2.48,3.47,2.34-.44,2.63-3.28,2.67-6.56l4.88-.9v.77c0,5.53-2.39,9.89-7.79,10.92-3.82.72-7.11-1-7.11-6.84a13.13,13.13,0,0,1,2.24-7.65l2.1-3.58c1.58-2.66,1.81-4.62,1.91-8.73ZM58.18,216a2.32,2.32,0,0,1-2.87-2.34,3.65,3.65,0,0,1,2.87-3.43,2.32,2.32,0,0,1,2.87,2.35A3.64,3.64,0,0,1,58.18,216Z"/><polygon class="cls-6" points="249.22 276.48 263.81 321.4 311.05 321.4 272.83 349.17 287.43 394.1 249.22 366.33 211 394.1 225.6 349.17 187.38 321.4 234.62 321.4 249.22 276.48"/><polygon class="cls-6" points="162.03 270.88 167.6 288.02 185.62 288.02 171.04 298.61 176.61 315.74 162.03 305.15 147.45 315.74 153.02 298.61 138.44 288.02 156.46 288.02 162.03 270.88"/><polygon class="cls-6" points="334.8 270.88 340.37 288.02 358.39 288.02 343.81 298.61 349.38 315.74 334.8 305.15 320.23 315.74 325.79 298.61 311.22 288.02 329.24 288.02 334.8 270.88"/></g></g></svg>