
<svg width="40px" height="40px" viewBox="1115 0 40 40" version="1.1" xmlns="http://www.w3.org/2000/svg" xmlns:xlink="http://www.w3.org/1999/xlink">
    <defs>
        <rect id="path-1" x="0" y="0" width="40" height="40" rx="20"></rect>
        <mask id="mask-2" maskContentUnits="userSpaceOnUse" maskUnits="objectBoundingBox" x="0" y="0" width="40" height="40" fill="white">
            <use xlink:href="#path-1"></use>
        </mask>
    </defs>
    <g id="Button" stroke="none" stroke-width="1" fill="none" fill-rule="evenodd" transform="translate(1115.000000, 0.000000)">
        <use stroke="#FFFFFF" mask="url(#mask-2)" stroke-width="4" opacity="0.5" xlink:href="#path-1"></use>
        <path d="M29.4375,14.796875 C28.9687477,15.5260453 28.3437539,16.1770805 27.5625,16.75 L27.5625,17.21875 C27.5625,19.9531387 26.5794369,22.4335826 24.6132812,24.6601562 C22.6471256,26.8867299 20.0364746,28 16.78125,28 C14.6979062,28 12.7708422,27.4270891 11,26.28125 C11.4166687,26.3333336 11.7161449,26.359375 11.8984375,26.359375 C13.6432379,26.359375 15.2057223,25.8125055 16.5859375,24.71875 C15.7786418,24.6927082 15.0494824,24.4388045 14.3984375,23.9570312 C13.7473926,23.475258 13.3046887,22.8567746 13.0703125,22.1015625 C13.3828141,22.1536461 13.6171867,22.1796875 13.7734375,22.1796875 C14.0338555,22.1796875 14.3723938,22.1276047 14.7890625,22.0234375 C13.9296832,21.8411449 13.2070342,21.4049514 12.6210938,20.7148438 C12.0351533,20.0247361 11.7421875,19.2239629 11.7421875,18.3125 L11.7421875,18.2734375 C12.315107,18.5859391 12.888018,18.7421875 13.4609375,18.7421875 C12.3411402,18.0130172 11.78125,16.9583402 11.78125,15.578125 C11.78125,14.9270801 11.9505191,14.3020863 12.2890625,13.703125 C14.2942809,16.1770957 16.8854008,17.4921867 20.0625,17.6484375 C20.0104164,17.4661449 19.984375,17.1796895 19.984375,16.7890625 C19.984375,15.7213488 20.3489547,14.8229203 21.078125,14.09375 C21.8072953,13.3645797 22.7057238,13 23.7734375,13 C24.8411512,13 25.7526004,13.4036418 26.5078125,14.2109375 C27.2890664,14.0807285 28.09635,13.7682316 28.9296875,13.2734375 C28.6692695,14.1849004 28.1093793,14.8880184 27.25,15.3828125 C28.0572957,15.3046871 28.7864551,15.1093766 29.4375,14.796875 L29.4375,14.796875 Z" id="ion-social-twitter---Ionicons" fill="#FFFFFF"></path>
    </g>
</svg>