
<svg width="50px" height="50px" viewBox="461 21 50 50" version="1.1" xmlns="http://www.w3.org/2000/svg" xmlns:xlink="http://www.w3.org/1999/xlink">
    <defs>
        <circle id="path-1" cx="23" cy="23" r="23"></circle>
        <mask id="mask-2" maskContentUnits="userSpaceOnUse" maskUnits="objectBoundingBox" x="-2" y="-2" width="50" height="50">
            <rect x="-2" y="-2" width="50" height="50" fill="white"></rect>
            <use xlink:href="#path-1" fill="black"></use>
        </mask>
    </defs>
    <g id="Group-3" stroke="none" stroke-width="1" fill="none" fill-rule="evenodd" transform="translate(463.000000, 23.000000)">
        <use id="Oval" stroke="#FFFFFF" mask="url(#mask-2)" stroke-width="4" opacity="0.5" xlink:href="#path-1"></use>
        <path d="M27.32,23.82 C28.0400036,23.82 28.8399956,23.9266656 29.72,24.14 C30.6933382,24.3933346 31.4866636,24.719998 32.1,25.12 C32.8200036,25.6000024 33.18,26.139997 33.18,26.74 L33.18,28.82 L28.18,28.82 L28.18,26.74 C28.18,25.606661 27.6333388,24.6466706 26.54,23.86 C26.7266676,23.8333332 26.986665,23.82 27.32,23.82 L27.32,23.82 Z M20.68,23.82 C21.4000036,23.82 22.193329,23.9266656 23.06,24.14 C24.0333382,24.3933346 24.819997,24.719998 25.42,25.12 C26.1400036,25.6000024 26.5,26.139997 26.5,26.74 L26.5,28.82 L14.82,28.82 L14.82,26.74 C14.82,26.139997 15.1799964,25.6000024 15.9,25.12 C16.5133364,24.719998 17.3066618,24.3933346 18.28,24.14 C19.1600044,23.9266656 19.9599964,23.82 20.68,23.82 L20.68,23.82 Z M20.68,22.18 C20.2399978,22.18 19.8266686,22.0666678 19.44,21.84 C19.0533314,21.6133322 18.7466678,21.3066686 18.52,20.92 C18.2933322,20.5333314 18.18,20.1200022 18.18,19.68 C18.18,19.2399978 18.2933322,18.8266686 18.52,18.44 C18.7466678,18.0533314 19.0533314,17.7466678 19.44,17.52 C19.8266686,17.2933322 20.2399978,17.18 20.68,17.18 C21.1200022,17.18 21.5299981,17.2933322 21.91,17.52 C22.2900019,17.7466678 22.5899989,18.0499981 22.81,18.43 C23.0300011,18.8100019 23.14,19.2266644 23.14,19.68 C23.14,20.1333356 23.0300011,20.5499981 22.81,20.93 C22.5899989,21.3100019 22.2900019,21.6133322 21.91,21.84 C21.5299981,22.0666678 21.1200022,22.18 20.68,22.18 L20.68,22.18 Z M27.32,22.18 C26.8799978,22.18 26.4666686,22.0666678 26.08,21.84 C25.6933314,21.6133322 25.3866678,21.3066686 25.16,20.92 C24.9333322,20.5333314 24.82,20.1200022 24.82,19.68 C24.82,19.2399978 24.9333322,18.8266686 25.16,18.44 C25.3866678,18.0533314 25.6933314,17.7466678 26.08,17.52 C26.4666686,17.2933322 26.8799978,17.18 27.32,17.18 C27.7600022,17.18 28.1733314,17.2933322 28.56,17.52 C28.9466686,17.7466678 29.2533322,18.0533314 29.48,18.44 C29.7066678,18.8266686 29.82,19.2399978 29.82,19.68 C29.82,20.1200022 29.7066678,20.5333314 29.48,20.92 C29.2533322,21.3066686 28.9466686,21.6133322 28.56,21.84 C28.1733314,22.0666678 27.7600022,22.18 27.32,22.18 L27.32,22.18 Z" id="people---material" fill="#FFFFFF"></path>
    </g>
</svg>