
<svg width="41px" height="41px" viewBox="236 486 41 41" version="1.1" xmlns="http://www.w3.org/2000/svg" xmlns:xlink="http://www.w3.org/1999/xlink">
    <defs></defs>
    <path d="M276.375,486.959821 C276.866074,487.316966 277.066965,487.793152 276.977679,488.388393 L271.263393,522.674107 C271.188988,523.105657 270.950895,523.440475 270.549107,523.678571 C270.340773,523.79762 270.11012,523.857143 269.857143,523.857143 C269.693452,523.857143 269.514882,523.819941 269.321429,523.745536 L259.209821,519.616071 L253.808036,526.200893 C253.540177,526.543156 253.175598,526.714286 252.714286,526.714286 C252.520832,526.714286 252.357144,526.684524 252.223214,526.625 C251.940475,526.520833 251.713543,526.345983 251.542411,526.100446 C251.371279,525.854909 251.285714,525.583335 251.285714,525.285714 L251.285714,517.495536 L270.571429,493.857143 L246.709821,514.504464 L237.892857,510.888393 C237.342259,510.680058 237.044643,510.270836 237,509.660714 C236.970238,509.065473 237.208331,508.62649 237.714286,508.34375 L274.857143,486.915179 C275.080358,486.781249 275.318451,486.714286 275.571429,486.714286 C275.869049,486.714286 276.136904,486.79613 276.375,486.959821 L276.375,486.959821 Z" id="Paper-Plane---FontAwesome" stroke="none" fill="#FFFFFF" fill-rule="evenodd"></path>
</svg>